# Blender v2.78 (sub 0) OBJ File: ''
# www.blender.org
mtllib building.mtl
o EmpireState_lp
v -5.985804 10.213222 -3.951361
v 5.985733 0.024048 -3.951363
v -5.985804 0.024048 -3.951363
v -3.952095 28.738890 -3.525926
v 4.968822 19.476055 -3.738375
v -4.968895 19.476055 -3.738371
v 5.985733 10.213222 -3.951361
v 5.985733 10.213222 3.951292
v -5.985804 0.024048 3.951290
v 5.985733 0.024048 3.951290
v 3.955776 28.738890 3.525862
v -4.970882 19.476055 3.738852
v 4.970814 19.476055 3.738844
v -5.985804 10.213222 3.951292
v -3.952095 38.001720 -3.525925
v 3.034065 47.264553 -2.823845
v 3.952023 38.001720 -3.525925
v -0.863297 66.716499 -0.821623
v 1.395393 56.527390 -1.192245
v -1.828644 56.527390 -1.788924
v -3.034164 47.264553 -2.823848
v 3.039093 47.264553 2.824437
v -3.955849 38.001720 3.525864
v 3.955776 38.001720 3.525864
v 1.036404 56.527390 1.009992
v -0.279293 66.716499 0.603937
v -1.201477 56.527390 1.343652
v -3.039169 47.264553 2.824437
v -3.955849 28.738890 3.525862
v 3.952023 28.738890 -3.525926
v 0.634552 66.716499 -0.263445
v 0.379845 66.716499 0.358305
vn 0.0000 0.0000 -1.0000
vn -0.0000 0.0229 -0.9997
vn -0.0000 0.0230 -0.9997
vn 0.0000 -0.0000 1.0000
vn 0.0000 0.0230 0.9997
vn 0.0000 0.0229 0.9997
vn 0.0000 0.0756 -0.9971
vn 0.1815 0.0759 -0.9805
vn 0.1814 0.0854 -0.9797
vn 0.1816 0.0763 -0.9804
vn 0.0000 0.1735 -0.9848
vn 0.0000 0.0755 0.9971
vn 0.1472 0.0584 0.9874
vn 0.0000 0.1922 0.9813
vn -1.0000 0.0000 0.0000
vn -0.9940 0.1090 -0.0003
vn -0.9940 0.1090 -0.0004
vn -0.9940 0.1091 -0.0005
vn -0.9940 0.1090 -0.0001
vn -0.9940 0.1091 0.0000
vn -0.9951 0.0985 -0.0007
vn -0.9951 0.0986 -0.0007
vn -0.9951 0.0987 -0.0009
vn -0.9778 0.0741 0.1958
vn -0.9751 0.1051 0.1952
vn 1.0000 0.0000 0.0000
vn 0.9940 0.1090 -0.0004
vn 0.9940 0.1090 -0.0003
vn 0.9940 0.1091 -0.0005
vn 0.9940 0.1090 -0.0001
vn 0.9940 0.1091 0.0000
vn 0.9951 0.0986 -0.0007
vn 0.9951 0.0985 -0.0007
vn 0.9951 0.0987 -0.0009
vn 0.9853 0.0589 0.1606
vn 0.9766 0.1447 0.1592
vn -1.0000 0.0000 -0.0005
vn 1.0000 -0.0000 -0.0005
vn 0.0000 -1.0000 -0.0000
vn 0.0000 1.0000 0.0000
vn 0.3470 0.1108 -0.9313
vn 0.1813 0.0859 -0.9797
vn 0.3480 0.0822 0.9339
vn 0.1463 0.1278 0.9810
vn -0.9941 0.1089 -0.0003
vn -0.9951 0.0984 -0.0005
vn -0.9197 0.1106 0.3768
vn -0.9809 0.1945 -0.0009
vn 0.9941 0.1089 -0.0003
vn 0.9951 0.0984 -0.0005
vn 0.9221 0.0836 0.3778
vn 0.9775 0.2112 -0.0009
usemtl 01___Default
s 1
f 1//1 2//1 3//1
f 4//2 5//3 6//3
f 1//3 5//3 7//3
f 8//4 9//4 10//4
f 11//5 12//5 13//5
f 8//6 12//5 14//6
f 15//7 16//7 17//7
f 18//8 19//9 20//10
f 21//11 19//11 16//11
f 22//12 23//12 24//12
f 25//13 26//13 27//13
f 25//14 28//14 22//14
f 9//15 1//15 3//15
f 6//16 29//17 4//18
f 14//19 6//16 1//20
f 15//21 28//22 21//23
f 27//24 18//24 20//24
f 21//25 27//25 20//25
f 8//26 2//26 7//26
f 11//27 5//28 30//29
f 5//28 8//30 7//31
f 22//32 17//33 16//34
f 31//35 25//35 19//35
f 25//36 16//36 19//36
f 29//37 15//37 4//37
f 24//38 30//38 17//38
f 2//39 9//39 3//39
f 26//40 31//40 18//40
f 15//1 30//1 4//1
f 24//4 29//4 11//4
f 1//1 7//1 2//1
f 4//2 30//2 5//3
f 1//3 6//3 5//3
f 8//4 14//4 9//4
f 11//5 29//5 12//5
f 8//6 13//5 12//5
f 15//7 21//7 16//7
f 18//41 31//41 19//41
f 21//42 20//10 19//9
f 22//12 28//12 23//12
f 25//43 32//43 26//43
f 25//44 27//44 28//44
f 9//15 14//15 1//15
f 6//16 12//45 29//17
f 14//19 12//45 6//16
f 15//21 23//46 28//22
f 27//47 26//47 18//47
f 21//48 28//48 27//48
f 8//26 10//26 2//26
f 11//27 13//49 5//28
f 5//28 13//49 8//30
f 22//32 24//50 17//33
f 31//51 32//51 25//51
f 25//52 22//52 16//52
f 29//37 23//37 15//37
f 24//38 11//38 30//38
f 2//39 10//39 9//39
f 26//40 32//40 31//40
f 15//1 17//1 30//1
f 24//4 23//4 29//4
