# Blender v2.78 (sub 0) OBJ File: ''
# www.blender.org
mtllib cube_108.mtl
o Cube
v -1.000002 0.033073 1.000000
v -1.000002 0.755295 1.000001
v -1.000001 0.033073 0.277778
v -1.000001 0.755295 0.277778
v -0.277778 0.033073 1.000000
v -0.277778 0.755295 1.000001
v -0.277778 0.033073 0.277778
v -1.000002 1.310851 1.000000
v -1.000002 2.033073 1.000000
v -1.000001 1.310851 0.277778
v -1.000001 2.033073 0.277778
v -0.277778 1.310851 1.000001
v -0.277778 2.033073 1.000001
v -0.277778 2.033073 0.277778
v -1.000001 0.033073 -0.277778
v -1.000001 0.755295 -0.277778
v -1.000000 0.033073 -1.000000
v -1.000000 0.755295 -1.000000
v -0.277778 0.033073 -0.277778
v -0.277778 0.033073 -1.000000
v -0.277778 0.755295 -1.000000
v -1.000001 1.310851 -0.277778
v -1.000001 2.033073 -0.277778
v -1.000000 1.310851 -1.000000
v -1.000000 2.033073 -1.000000
v -0.277778 2.033073 -0.277778
v -0.277778 1.310851 -1.000000
v -0.277778 2.033073 -0.999999
v 0.277778 0.033073 1.000000
v 0.277778 0.755295 1.000001
v 0.277778 0.033073 0.277778
v 1.000000 0.033073 1.000000
v 1.000000 0.755295 1.000001
v 1.000000 0.033073 0.277778
v 1.000000 0.755295 0.277778
v 0.277778 1.310851 1.000002
v 0.277778 2.033073 1.000002
v 0.277778 2.033073 0.277778
v 0.999999 1.310851 1.000002
v 0.999998 2.033073 1.000002
v 1.000000 1.310851 0.277778
v 0.999999 2.033073 0.277778
v 0.277778 0.033073 -0.277778
v 0.277778 0.033073 -1.000000
v 0.277778 0.755295 -1.000000
v 1.000000 0.033073 -0.277778
v 1.000000 0.755295 -0.277778
v 1.000000 0.033073 -1.000000
v 1.000000 0.755295 -0.999999
v 0.277778 2.033073 -0.277778
v 0.277778 1.310851 -0.999999
v 0.277778 2.033073 -0.999999
v 1.000000 1.310851 -0.277778
v 1.000000 2.033073 -0.277778
v 1.000000 1.310851 -0.999999
v 1.000000 2.033073 -0.999997
vn -1.0000 -0.0000 -0.0000
vn 0.0000 -0.0000 1.0000
vn 0.0000 -1.0000 -0.0000
vn 0.0000 1.0000 0.0000
vn 0.0000 0.0000 -1.0000
vn 1.0000 0.0000 0.0000
usemtl Material
s off
f 1//1 4//1 3//1
f 5//2 2//2 1//2
f 3//3 5//3 1//3
f 9//1 10//1 8//1
f 8//2 13//2 9//2
f 14//4 9//4 13//4
f 15//1 18//1 17//1
f 21//5 17//5 18//5
f 17//3 19//3 15//3
f 22//1 25//1 24//1
f 25//5 27//5 24//5
f 26//4 25//4 23//4
f 35//6 32//6 34//6
f 29//2 33//2 30//2
f 31//3 32//3 29//3
f 42//6 39//6 41//6
f 36//2 40//2 37//2
f 40//4 38//4 37//4
f 49//6 46//6 48//6
f 45//5 48//5 44//5
f 43//3 48//3 46//3
f 56//6 53//6 55//6
f 52//5 55//5 51//5
f 56//4 50//4 54//4
f 29//2 6//2 5//2
f 7//3 29//3 5//3
f 12//2 37//2 13//2
f 38//4 13//4 37//4
f 45//5 20//5 21//5
f 20//3 43//3 19//3
f 28//5 51//5 27//5
f 52//4 26//4 50//4
f 3//1 16//1 15//1
f 15//3 7//3 3//3
f 47//6 34//6 46//6
f 43//3 34//3 31//3
f 11//1 22//1 10//1
f 14//4 23//4 11//4
f 54//6 41//6 53//6
f 42//4 50//4 38//4
f 8//1 4//1 2//1
f 6//2 8//2 2//2
f 22//1 18//1 16//1
f 27//5 18//5 24//5
f 41//6 33//6 35//6
f 30//2 39//2 36//2
f 55//6 47//6 49//6
f 51//5 49//5 45//5
f 10//1 16//1 4//1
f 53//6 35//6 47//6
f 30//2 12//2 6//2
f 51//5 21//5 27//5
f 19//3 31//3 7//3
f 50//4 14//4 38//4
f 1//1 2//1 4//1
f 5//2 6//2 2//2
f 3//3 7//3 5//3
f 9//1 11//1 10//1
f 8//2 12//2 13//2
f 14//4 11//4 9//4
f 15//1 16//1 18//1
f 21//5 20//5 17//5
f 17//3 20//3 19//3
f 22//1 23//1 25//1
f 25//5 28//5 27//5
f 26//4 28//4 25//4
f 35//6 33//6 32//6
f 29//2 32//2 33//2
f 31//3 34//3 32//3
f 42//6 40//6 39//6
f 36//2 39//2 40//2
f 40//4 42//4 38//4
f 49//6 47//6 46//6
f 45//5 49//5 48//5
f 43//3 44//3 48//3
f 56//6 54//6 53//6
f 52//5 56//5 55//5
f 56//4 52//4 50//4
f 29//2 30//2 6//2
f 7//3 31//3 29//3
f 12//2 36//2 37//2
f 38//4 14//4 13//4
f 45//5 44//5 20//5
f 20//3 44//3 43//3
f 28//5 52//5 51//5
f 52//4 28//4 26//4
f 3//1 4//1 16//1
f 15//3 19//3 7//3
f 47//6 35//6 34//6
f 43//3 46//3 34//3
f 11//1 23//1 22//1
f 14//4 26//4 23//4
f 54//6 42//6 41//6
f 42//4 54//4 50//4
f 8//1 10//1 4//1
f 6//2 12//2 8//2
f 22//1 24//1 18//1
f 27//5 21//5 18//5
f 41//6 39//6 33//6
f 30//2 33//2 39//2
f 55//6 53//6 47//6
f 51//5 55//5 49//5
f 10//1 22//1 16//1
f 53//6 41//6 35//6
f 30//2 36//2 12//2
f 51//5 45//5 21//5
f 19//3 43//3 31//3
f 50//4 26//4 14//4
