ply
format ascii 1.0
comment Created by Blender 2.76 (sub 0) - www.blender.org, source file: ''
element vertex 26
property float x
property float y
property float z
property float nx
property float ny
property float nz
element face 12
property list uchar uint vertex_indices
end_header
1.000000 1.000000 -1.000000 0.000000 0.000000 -1.000000
1.000000 -1.000000 -1.000000 0.000000 0.000000 -1.000000
-1.000000 -1.000000 -1.000000 0.000000 0.000000 -1.000000
-1.000000 1.000000 1.000000 0.000000 -0.000000 1.000000
-1.000000 -1.000000 1.000000 0.000000 -0.000000 1.000000
0.999999 -1.000001 1.000000 0.000000 -0.000000 1.000000
0.999999 -1.000001 1.000000 -0.000000 -1.000000 0.000000
-1.000000 -1.000000 1.000000 -0.000000 -1.000000 0.000000
-1.000000 -1.000000 -1.000000 -0.000000 -1.000000 0.000000
-1.000000 -1.000000 -1.000000 -1.000000 0.000000 -0.000000
-1.000000 -1.000000 1.000000 -1.000000 0.000000 -0.000000
-1.000000 1.000000 1.000000 -1.000000 0.000000 -0.000000
1.000000 1.000000 -1.000000 0.000000 1.000000 0.000000
-1.000000 1.000000 -1.000000 0.000000 1.000000 0.000000
-1.000000 1.000000 1.000000 0.000000 1.000000 0.000000
-1.000000 1.000000 -1.000000 0.000000 0.000000 -1.000000
1.000000 0.999999 1.000000 -0.000000 -0.000000 1.000000
1.000000 -1.000000 -1.000000 -0.000000 -1.000000 -0.000000
-1.000000 1.000000 -1.000000 -1.000000 0.000000 -0.000000
1.000000 0.999999 1.000000 0.000000 1.000000 0.000000
1.000000 -1.000000 -1.000000 1.000000 0.000000 0.000000
1.000000 1.000000 -1.000000 1.000000 0.000000 0.000000
0.999999 -1.000001 1.000000 1.000000 0.000000 0.000000
1.000000 0.999999 1.000000 1.000000 -0.000001 -0.000000
0.999999 -1.000001 1.000000 1.000000 -0.000001 -0.000000
1.000000 1.000000 -1.000000 1.000000 -0.000001 -0.000000
3 0 1 2
3 3 4 5
3 6 7 8
3 9 10 11
3 12 13 14
3 15 0 2
3 16 3 5
3 17 6 8
3 18 9 11
3 19 12 14
3 20 21 22
3 23 24 25
