# Blender v2.78 (sub 0) OBJ File: ''
# www.blender.org
mtllib empty.mtl
o Plane
v -1.687681 3.860499 1.687161
v -1.687681 3.860499 -1.687202
v 1.686682 3.860499 -1.687202
v -1.687681 3.860499 -1.365811
v -1.687681 3.860499 0.009664
v -1.687681 3.860499 1.344925
v 1.686682 3.860499 0.009664
v 1.686682 3.860499 -1.365811
v -1.317998 3.860499 1.687161
v -0.002239 3.860499 1.687161
v 1.329187 3.860499 -1.687202
v -0.002239 3.860499 -1.687202
v -1.317998 3.860499 -1.687202
v -0.002239 3.680266 1.344925
v -1.317998 3.680266 1.344925
v 1.329187 3.680266 0.009664
v -0.002103 3.680266 0.008910
v -1.317998 3.680266 0.009664
v 1.329187 3.680266 -1.365811
v -0.002239 3.680266 -1.365811
v -1.317998 3.680266 -1.365811
v -1.687681 -0.008600 1.687161
v 1.686682 -0.008600 1.687161
v -1.687681 -0.008600 -1.687202
v 1.686682 -0.008600 -1.687202
v -1.687681 -0.008600 -1.365811
v -1.687681 -0.008600 0.009664
v -1.687681 -0.008600 1.344925
v 1.686682 -0.008600 1.344925
v 1.686682 -0.008600 0.009664
v 1.686682 -0.008600 -1.365811
v -1.317998 -0.008600 1.687161
v -0.002239 -0.008600 1.687161
v 1.329187 -0.008600 1.687161
v 1.329187 -0.008600 -1.687202
v -0.002239 -0.008600 -1.687202
v -1.317998 -0.008600 -1.687202
v 1.329187 -0.008600 1.344925
v -0.002239 -0.008600 1.344925
v -1.317998 -0.008600 1.344925
v 1.329187 -0.008600 0.009664
v -1.317998 -0.008600 0.009664
v 1.329187 -0.008600 -1.365811
v -0.002239 -0.008600 -1.365811
v -1.317998 -0.008600 -1.365811
v 1.329187 3.019117 -1.365811
v 1.329187 3.019117 0.009664
v -1.317998 3.019117 0.009664
v -1.317998 3.019117 1.344925
v 1.329187 3.019117 1.344925
v -0.002239 3.019117 -1.365811
v -1.317998 3.019117 -1.365811
v -0.002239 3.019117 1.344925
v 1.686682 2.971553 -1.687202
v 1.329187 2.971553 -1.687202
v 1.686682 2.971553 0.009664
v 1.329187 2.971553 1.687161
v -1.687681 2.971553 1.344925
v -1.687681 2.971553 1.687161
v 1.686682 2.971553 1.687161
v 1.686682 2.971553 1.344925
v -1.317998 2.971553 1.687161
v -0.002239 2.971553 1.687161
v 1.686682 2.971553 -1.365811
v -0.002239 2.971553 -1.687202
v -1.687681 2.971553 -1.687202
v -1.317998 2.971553 -1.687202
v -1.687681 2.971553 -1.365811
v -1.687681 2.971553 0.009664
vn 0.0000 0.0000 -1.0000
vn 1.0000 0.0000 0.0000
vn 0.0000 -1.0000 0.0000
vn 0.0000 0.0000 1.0000
vn -1.0000 0.0000 0.0000
vn 0.1319 0.9913 0.0000
vn 0.0000 1.0000 0.0000
vn 0.4234 -0.8016 0.4221
vn 0.0000 0.9905 0.1377
vn 0.4100 -0.8133 0.4128
usemtl None
s off
f 35//1 65//1 55//1
f 31//2 54//2 64//2
f 30//2 64//2 56//2
f 40//2 48//2 49//2
f 25//1 55//1 54//1
f 21//3 17//3 18//3
f 17//3 19//3 16//3
f 34//4 60//4 57//4
f 18//3 14//3 15//3
f 29//2 56//2 61//2
f 43//5 47//5 46//5
f 33//4 57//4 63//4
f 28//5 59//5 58//5
f 23//2 61//2 60//2
f 32//4 63//4 62//4
f 35//3 31//3 43//3
f 38//3 23//3 34//3
f 41//3 29//3 38//3
f 43//3 30//3 41//3
f 26//3 42//3 27//3
f 27//3 40//3 28//3
f 28//3 32//3 22//3
f 40//3 33//3 32//3
f 39//3 34//3 33//3
f 24//3 45//3 26//3
f 37//3 44//3 45//3
f 36//3 43//3 44//3
f 37//1 66//1 67//1
f 36//1 67//1 65//1
f 41//5 50//5 47//5
f 44//4 46//4 51//4
f 24//5 68//5 66//5
f 45//4 51//4 52//4
f 26//5 69//5 68//5
f 38//1 53//1 50//1
f 22//4 62//4 59//4
f 42//2 52//2 48//2
f 27//5 58//5 69//5
f 39//1 49//1 53//1
f 53//1 15//1 14//1
f 48//2 21//2 18//2
f 52//4 20//4 21//4
f 51//4 19//4 20//4
f 46//5 16//5 19//5
f 49//2 18//2 15//2
f 69//5 6//5 5//5
f 59//4 9//4 1//4
f 68//5 5//5 4//5
f 66//5 4//5 2//5
f 65//1 13//1 12//1
f 67//1 2//1 13//1
f 62//4 10//4 9//4
f 58//5 1//5 6//5
f 54//1 11//1 3//1
f 56//2 8//2 7//2
f 64//2 3//2 8//2
f 55//1 12//1 11//1
f 50//6 61//6 47//6
f 61//6 56//6 47//6
f 56//4 16//4 47//4
f 8//7 11//7 7//7
f 17//3 16//3 14//3
f 16//8 10//8 14//8
f 14//2 63//2 53//2
f 63//9 50//9 53//9
f 60//9 50//9 57//9
f 35//1 36//1 65//1
f 31//2 25//2 54//2
f 30//2 31//2 64//2
f 40//2 42//2 48//2
f 25//1 35//1 55//1
f 21//3 20//3 17//3
f 17//3 20//3 19//3
f 34//4 23//4 60//4
f 18//3 17//3 14//3
f 29//2 30//2 56//2
f 43//5 41//5 47//5
f 33//4 34//4 57//4
f 28//5 22//5 59//5
f 23//2 29//2 61//2
f 32//4 33//4 63//4
f 35//3 25//3 31//3
f 38//3 29//3 23//3
f 41//3 30//3 29//3
f 43//3 31//3 30//3
f 26//3 45//3 42//3
f 27//3 42//3 40//3
f 28//3 40//3 32//3
f 40//3 39//3 33//3
f 39//3 38//3 34//3
f 24//3 37//3 45//3
f 37//3 36//3 44//3
f 36//3 35//3 43//3
f 37//1 24//1 66//1
f 36//1 37//1 67//1
f 41//5 38//5 50//5
f 44//4 43//4 46//4
f 24//5 26//5 68//5
f 45//4 44//4 51//4
f 26//5 27//5 69//5
f 38//1 39//1 53//1
f 22//4 32//4 62//4
f 42//2 45//2 52//2
f 27//5 28//5 58//5
f 39//1 40//1 49//1
f 53//1 49//1 15//1
f 48//2 52//2 21//2
f 52//4 51//4 20//4
f 51//4 46//4 19//4
f 46//5 47//5 16//5
f 49//2 48//2 18//2
f 69//5 58//5 6//5
f 59//4 62//4 9//4
f 68//5 69//5 5//5
f 66//5 68//5 4//5
f 65//1 67//1 13//1
f 67//1 66//1 2//1
f 62//4 63//4 10//4
f 58//5 59//5 1//5
f 54//1 55//1 11//1
f 56//2 64//2 8//2
f 64//2 54//2 3//2
f 55//1 65//1 12//1
f 50//6 60//6 61//6
f 56//4 7//4 16//4
f 5//7 6//7 9//7
f 9//7 10//7 5//7
f 6//7 1//7 9//7
f 2//7 4//7 13//7
f 11//7 12//7 7//7
f 13//7 4//7 5//7
f 5//7 10//7 12//7
f 8//7 3//7 11//7
f 10//7 7//7 12//7
f 12//7 13//7 5//7
f 16//10 7//10 10//10
f 14//2 10//2 63//2
f 63//9 57//9 50//9
