# Blender v2.78 (sub 0) OBJ File: ''
# www.blender.org
mtllib tower.mtl
o Cube_Cube.001
v -1.000000 0.003880 1.000000
v -2.641252 2.003880 2.641252
v -2.641252 2.003880 -2.641252
v -1.000000 0.003880 -1.000000
v 2.641252 2.003880 -2.641252
v 1.000000 0.003880 -1.000000
v 2.641252 2.003880 2.641252
v 1.000000 0.003880 1.000000
v -0.596472 5.122233 0.596472
v -0.596472 5.122233 -0.596472
v 0.596472 5.122233 0.596472
v 0.153596 8.482152 0.153596
v -0.153596 8.482152 0.153596
v 0.596472 5.122233 -0.596472
v 0.153596 8.482152 -0.153596
v -0.153596 8.482152 -0.153596
vn -0.7730 -0.6344 0.0000
vn 0.0000 -0.6344 -0.7730
vn 0.7730 -0.6344 0.0000
vn 0.0000 -0.6344 0.7730
vn 0.0000 -1.0000 -0.0000
vn -0.8362 0.5483 0.0000
vn 0.0000 0.1307 0.9914
vn 0.0000 0.5483 0.8362
vn 0.0000 0.5483 -0.8362
vn 0.8362 0.5483 0.0000
vn 0.0000 1.0000 0.0000
vn 0.0000 0.1307 -0.9914
vn 0.9914 0.1307 0.0000
vn -0.9914 0.1307 0.0000
usemtl None.001
s 1
f 1//1 2//1 3//1 4//1
f 4//2 3//2 5//2 6//2
f 6//3 5//3 7//3 8//3
f 8//4 7//4 2//4 1//4
f 4//5 6//5 8//5 1//5
f 3//6 2//6 9//6 10//6
f 9//7 11//7 12//7 13//7
f 2//8 7//8 11//8 9//8
f 5//9 3//9 10//9 14//9
f 7//10 5//10 14//10 11//10
f 15//11 16//11 13//11 12//11
f 14//12 10//12 16//12 15//12
f 11//13 14//13 15//13 12//13
f 10//14 9//14 13//14 16//14
